<svg id="Layer_1" data-name="Layer 1" xmlns="http://www.w3.org/2000/svg" viewBox="0 0 364.38 712.05"><defs><style>.cls-1{font-size:140.85px;font-family:EurostileLTStd, Eurostile LT Std;}.cls-1,.cls-2{fill:#c52729;}.cls-3{fill:none;}</style></defs><title>gasol-logo</title><g id="_Group_" data-name="&lt;Group&gt;"><text class="cls-1" transform="translate(0 676.84)">Gasol</text><path id="_Compound_Path_" data-name="&lt;Compound Path&gt;" class="cls-2" d="M629,306.71a130.4,130.4,0,0,0-9.69-49.44,132.89,132.89,0,0,0-14.11-25.83l27.36-27.36L600.53,172l-.09-.1-27.37,27.36a131.68,131.68,0,0,0-85.34-23.42c-63.84,4.8-115.59,56.45-120.68,120.29A130.64,130.64,0,0,0,390.48,382l32.83-32.92A85.67,85.67,0,0,1,497.81,221a86.08,86.08,0,0,1,85.83,85.73,85.75,85.75,0,0,1-128.17,74.5L422.64,414a15.28,15.28,0,0,0,1.53,1.15,129.82,129.82,0,0,0,73.64,22.75A85.81,85.81,0,0,1,583.54,527c-1.82,46.36-41.38,82.37-87.84,82.37H389.32a22.71,22.71,0,0,0,0,45.41H494.83c72,0,133-56.84,134.21-128.84a130.63,130.63,0,0,0-34.75-91.2,28.64,28.64,0,0,1-.19-39.08A130.39,130.39,0,0,0,629,306.71Z" transform="translate(-317.44 -143.89)"/><path id="_Path_" data-name="&lt;Path&gt;" class="cls-3" d="M663.79,226.22,626,263.93l-6.68-6.68a132.75,132.75,0,0,0-14.13-25.76l27.4-27.4-32.17-32.17-27.4,27.4a130.23,130.23,0,0,0-25.67-14l-3.68-3.68,37.75-37.71Z" transform="translate(-317.44 -143.89)"/><rect id="_Rectangle_" data-name="&lt;Rectangle&gt;" class="cls-3" x="559.84" y="151.18" width="45.44" height="141.61" transform="translate(10.15 -490.8) rotate(45)"/><circle id="_Path_2" data-name="&lt;Path&gt;" class="cls-2" cx="210.52" cy="132.7" r="22.72"/></g></svg>