<?xml version="1.0" encoding="utf-8"?>
<!-- Generator: Adobe Illustrator 19.0.0, SVG Export Plug-In . SVG Version: 6.00 Build 0)  -->
<svg version="1.1" id="Layer_1" xmlns="http://www.w3.org/2000/svg" xmlns:xlink="http://www.w3.org/1999/xlink" x="0px" y="0px"
	 viewBox="0 0 595.3 841.9" style="enable-background:new 0 0 595.3 841.9;" xml:space="preserve">
<style type="text/css">
	.st0{fill:#C62729;}
</style>
<g id="XMLID_16_">
	<path id="XMLID_183_" class="st0" d="M-220.5,92.3c20.2-21.8,32.6-50.9,32.6-83c0-16.3-3.2-31.9-9-46.1
		c-3.5-8.5-7.9-16.6-13.2-24.1l-30.7,30.7v0c6.7,11.6,10.6,25.1,10.6,39.5c0,44-35.9,80-80.1,80c-14.3,0-27.8-3.8-39.5-10.5
		l-30.6,30.6c0.4,0.5,1,0.7,1.4,1.1c19.6,13.4,43.3,21.2,68.7,21.2c45.2,0,81.8,37.6,80,83.1c-1.7,43.3-38.6,76.8-81.9,76.8h-99.2
		c-11.6,0-21.1,9.5-21.1,21.2c0,5.8,2.3,11.1,6.2,15c3.8,3.8,9.1,6.2,14.9,6.2h98.4c67.2,0,124-53,125.2-120.2
		c0.5-32.9-11.8-62.8-32.4-85.1C-229.9,118.4-230.1,102.7-220.5,92.3z M-240.1-90.9l-30.6,30.6c-11.6-6.7-25.1-10.4-39.6-10.4
		c-44,0-80,35.9-80,80c0,14.3,3.9,27.8,10.5,39.5l-30.6,30.7c-15.8-22.4-24.2-50.2-21.8-80c4.7-59.6,53-107.8,112.6-112.2
		c19.8-1.4,38.7,1.8,55.6,8.8c8.1,3.3,15.7,7.4,22.7,12.2l0.4,0.3L-240.1-90.9z"/>
	<circle id="XMLID_170_" class="st0" cx="-282.2" cy="-18.8" r="21.2"/>
</g>
</svg>
